<svg xmlns="http://www.w3.org/2000/svg" width="840" height="727" viewBox="0 0 840 727" role="img">
  <defs>
    <linearGradient id="wash-green" x1="0" y1="0" x2="1" y2="1">
      <stop offset="0%" stop-color="#3fb950" stop-opacity="0.10"/>
      <stop offset="60%" stop-color="#3fb950" stop-opacity="0"/>
    </linearGradient>
    <linearGradient id="wash-purple" x1="0" y1="0" x2="1" y2="1">
      <stop offset="0%" stop-color="#a371f7" stop-opacity="0.10"/>
      <stop offset="60%" stop-color="#a371f7" stop-opacity="0"/>
    </linearGradient>
    <linearGradient id="wash-amber" x1="0" y1="0" x2="1" y2="1">
      <stop offset="0%" stop-color="#d29922" stop-opacity="0.10"/>
      <stop offset="60%" stop-color="#d29922" stop-opacity="0"/>
    </linearGradient>
    <linearGradient id="wash-pink" x1="0" y1="0" x2="1" y2="1">
      <stop offset="0%" stop-color="#db61a2" stop-opacity="0.10"/>
      <stop offset="60%" stop-color="#db61a2" stop-opacity="0"/>
    </linearGradient>
    <linearGradient id="wash-blue" x1="0" y1="0" x2="1" y2="1">
      <stop offset="0%" stop-color="#58a6ff" stop-opacity="0.10"/>
      <stop offset="60%" stop-color="#58a6ff" stop-opacity="0"/>
    </linearGradient>
  </defs>
  <rect x="0.5" y="0.5" width="411" height="230.5" rx="10" fill="#151b23" stroke="#3d444d"/>
  <rect x="0.5" y="0.5" width="411" height="230.5" rx="10" fill="url(#wash-green)"/>
  <text x="18" y="30" font-family="-apple-system,BlinkMacSystemFont,'Segoe UI',Roboto,Helvetica,Arial,sans-serif" font-size="16.5" font-weight="600" fill="#f0f6fc">📦  What I ship</text>
  <text x="18" y="56" font-family="-apple-system,BlinkMacSystemFont,'Segoe UI',Roboto,Helvetica,Arial,sans-serif" font-size="13" fill="#b7bfc7"><tspan font-family="ui-monospace,SFMono-Regular,Menlo,Consolas,monospace" font-size="12.5" font-weight="600" fill="#f0f6fc">6,253</tspan><tspan fill="#b7bfc7"> contributions across </tspan><tspan font-family="ui-monospace,SFMono-Regular,Menlo,Consolas,monospace" font-size="12.5" font-weight="600" fill="#f0f6fc">12</tspan><tspan fill="#b7bfc7"> repositories</tspan></text>
  <text x="18" y="77" font-family="-apple-system,BlinkMacSystemFont,'Segoe UI',Roboto,Helvetica,Arial,sans-serif" font-size="13" fill="#b7bfc7"><tspan font-family="ui-monospace,SFMono-Regular,Menlo,Consolas,monospace" font-size="12.5" font-weight="600" fill="#f0f6fc">248</tspan><tspan fill="#b7bfc7"> of </tspan><tspan font-family="ui-monospace,SFMono-Regular,Menlo,Consolas,monospace" font-size="12.5" font-weight="600" fill="#f0f6fc">366</tspan><tspan fill="#b7bfc7"> days had at least one</tspan></text>
  <text x="18" y="98" font-family="-apple-system,BlinkMacSystemFont,'Segoe UI',Roboto,Helvetica,Arial,sans-serif" font-size="13" fill="#b7bfc7"><tspan fill="#b7bfc7">TypeScript </tspan><tspan font-family="ui-monospace,SFMono-Regular,Menlo,Consolas,monospace" font-size="12.5" font-weight="600" fill="#f0f6fc">89.8%</tspan><tspan fill="#b7bfc7">  ·  SQL </tspan><tspan font-family="ui-monospace,SFMono-Regular,Menlo,Consolas,monospace" font-size="12.5" font-weight="600" fill="#f0f6fc">4.4%</tspan></text>
  <rect x="18.0" y="137.8" width="4.2" height="2.2" fill="#3fb950" rx="1"/><rect x="24.2" y="137.8" width="4.2" height="2.2" fill="#3fb950" rx="1"/><rect x="30.3" y="136.7" width="4.2" height="3.3" fill="#3fb950" rx="1"/><rect x="36.5" y="137.2" width="4.2" height="2.8" fill="#3fb950" rx="1"/><rect x="42.7" y="136.4" width="4.2" height="3.6" fill="#3fb950" rx="1"/><rect x="48.8" y="137.3" width="4.2" height="2.7" fill="#3fb950" rx="1"/><rect x="55.0" y="137.6" width="4.2" height="2.4" fill="#3fb950" rx="1"/><rect x="61.1" y="134.4" width="4.2" height="5.6" fill="#3fb950" rx="1"/><rect x="67.3" y="135.9" width="4.2" height="4.1" fill="#3fb950" rx="1"/><rect x="73.5" y="137.4" width="4.2" height="2.6" fill="#3fb950" rx="1"/><rect x="79.6" y="135.8" width="4.2" height="4.2" fill="#3fb950" rx="1"/><rect x="85.8" y="138.5" width="4.2" height="1.5" fill="#3fb950" rx="1"/><rect x="92.0" y="137.1" width="4.2" height="2.9" fill="#3fb950" rx="1"/><rect x="98.1" y="136.7" width="4.2" height="3.3" fill="#3fb950" rx="1"/><rect x="104.3" y="137.4" width="4.2" height="2.6" fill="#3fb950" rx="1"/><rect x="110.5" y="138.5" width="4.2" height="1.5" fill="#3fb950" rx="1"/><rect x="116.6" y="136.9" width="4.2" height="3.1" fill="#3fb950" rx="1"/><rect x="122.8" y="136.9" width="4.2" height="3.1" fill="#3fb950" rx="1"/><rect x="129.0" y="136.9" width="4.2" height="3.1" fill="#3fb950" rx="1"/><rect x="135.1" y="137.5" width="4.2" height="2.5" fill="#3fb950" rx="1"/><rect x="141.3" y="136.2" width="4.2" height="3.8" fill="#3fb950" rx="1"/><rect x="147.4" y="137.9" width="4.2" height="2.1" fill="#3fb950" rx="1"/><rect x="153.6" y="138.3" width="4.2" height="1.7" fill="#3fb950" rx="1"/><rect x="159.8" y="138.0" width="4.2" height="2.0" fill="#3fb950" rx="1"/><rect x="165.9" y="135.4" width="4.2" height="4.6" fill="#3fb950" rx="1"/><rect x="172.1" y="136.7" width="4.2" height="3.3" fill="#3fb950" rx="1"/><rect x="178.3" y="133.3" width="4.2" height="6.7" fill="#3fb950" rx="1"/><rect x="184.4" y="136.0" width="4.2" height="4.0" fill="#3fb950" rx="1"/><rect x="190.6" y="136.4" width="4.2" height="3.6" fill="#3fb950" rx="1"/><rect x="196.8" y="136.7" width="4.2" height="3.3" fill="#3fb950" rx="1"/><rect x="202.9" y="138.0" width="4.2" height="2.0" fill="#3fb950" rx="1"/><rect x="209.1" y="138.4" width="4.2" height="1.6" fill="#3fb950" rx="1"/><rect x="215.2" y="138.5" width="4.2" height="1.5" fill="#3fb950" rx="1"/><rect x="221.4" y="137.4" width="4.2" height="2.6" fill="#3fb950" rx="1"/><rect x="227.6" y="137.6" width="4.2" height="2.4" fill="#3fb950" rx="1"/><rect x="233.7" y="136.6" width="4.2" height="3.4" fill="#3fb950" rx="1"/><rect x="239.9" y="138.5" width="4.2" height="1.5" fill="#3fb950" rx="1"/><rect x="246.1" y="138.5" width="4.2" height="1.5" fill="#3fb950" rx="1"/><rect x="252.2" y="138.5" width="4.2" height="1.5" fill="#3fb950" rx="1"/><rect x="258.4" y="136.6" width="4.2" height="3.4" fill="#3fb950" rx="1"/><rect x="264.6" y="137.9" width="4.2" height="2.1" fill="#3fb950" rx="1"/><rect x="270.7" y="136.0" width="4.2" height="4.0" fill="#3fb950" rx="1"/><rect x="276.9" y="137.8" width="4.2" height="2.2" fill="#3fb950" rx="1"/><rect x="283.0" y="136.8" width="4.2" height="3.2" fill="#3fb950" rx="1"/><rect x="289.2" y="136.9" width="4.2" height="3.1" fill="#3fb950" rx="1"/><rect x="295.4" y="133.8" width="4.2" height="6.2" fill="#3fb950" rx="1"/><rect x="301.5" y="131.5" width="4.2" height="8.5" fill="#3fb950" rx="1"/><rect x="307.7" y="132.5" width="4.2" height="7.5" fill="#3fb950" rx="1"/><rect x="313.9" y="134.3" width="4.2" height="5.7" fill="#3fb950" rx="1"/><rect x="320.0" y="134.9" width="4.2" height="5.1" fill="#3fb950" rx="1"/><rect x="326.2" y="131.8" width="4.2" height="8.2" fill="#3fb950" rx="1"/><rect x="332.4" y="126.9" width="4.2" height="13.1" fill="#3fb950" rx="1"/><rect x="338.5" y="118.0" width="4.2" height="22.0" fill="#3fb950" rx="1"/><rect x="344.7" y="125.0" width="4.2" height="15.0" fill="#3fb950" rx="1"/><rect x="350.9" y="130.1" width="4.2" height="9.9" fill="#3fb950" rx="1"/><rect x="357.0" y="138.5" width="4.2" height="1.5" fill="#3fb950" rx="1"/><rect x="363.2" y="138.5" width="4.2" height="1.5" fill="#3fb950" rx="1"/><rect x="369.3" y="138.5" width="4.2" height="1.5" fill="#3fb950" rx="1"/><rect x="375.5" y="137.5" width="4.2" height="2.5" fill="#3fb950" rx="1"/><rect x="381.7" y="135.1" width="4.2" height="4.9" fill="#3fb950" rx="1"/><rect x="387.8" y="135.2" width="4.2" height="4.8" fill="#3fb950" rx="1"/><text x="24.2" y="153.0" font-family="-apple-system,BlinkMacSystemFont,'Segoe UI',Roboto,Helvetica,Arial,sans-serif" font-size="9" fill="#9198a1">oct.</text><text x="55.0" y="153.0" font-family="-apple-system,BlinkMacSystemFont,'Segoe UI',Roboto,Helvetica,Arial,sans-serif" font-size="9" fill="#9198a1">nov.</text><text x="85.8" y="153.0" font-family="-apple-system,BlinkMacSystemFont,'Segoe UI',Roboto,Helvetica,Arial,sans-serif" font-size="9" fill="#9198a1">dec.</text><text x="116.6" y="153.0" font-family="-apple-system,BlinkMacSystemFont,'Segoe UI',Roboto,Helvetica,Arial,sans-serif" font-size="9" fill="#9198a1">jan.</text><text x="147.4" y="153.0" font-family="-apple-system,BlinkMacSystemFont,'Segoe UI',Roboto,Helvetica,Arial,sans-serif" font-size="9" fill="#9198a1">feb.</text><text x="178.3" y="153.0" font-family="-apple-system,BlinkMacSystemFont,'Segoe UI',Roboto,Helvetica,Arial,sans-serif" font-size="9" fill="#9198a1">mar.</text><text x="209.1" y="153.0" font-family="-apple-system,BlinkMacSystemFont,'Segoe UI',Roboto,Helvetica,Arial,sans-serif" font-size="9" fill="#9198a1">apr.</text><text x="239.9" y="153.0" font-family="-apple-system,BlinkMacSystemFont,'Segoe UI',Roboto,Helvetica,Arial,sans-serif" font-size="9" fill="#9198a1">may.</text><text x="270.7" y="153.0" font-family="-apple-system,BlinkMacSystemFont,'Segoe UI',Roboto,Helvetica,Arial,sans-serif" font-size="9" fill="#9198a1">jun.</text><text x="301.5" y="153.0" font-family="-apple-system,BlinkMacSystemFont,'Segoe UI',Roboto,Helvetica,Arial,sans-serif" font-size="9" fill="#9198a1">jul.</text><text x="332.4" y="153.0" font-family="-apple-system,BlinkMacSystemFont,'Segoe UI',Roboto,Helvetica,Arial,sans-serif" font-size="9" fill="#9198a1">aug.</text><text x="363.2" y="153.0" font-family="-apple-system,BlinkMacSystemFont,'Segoe UI',Roboto,Helvetica,Arial,sans-serif" font-size="9" fill="#9198a1">sep.</text>
  <text x="18" y="182" font-family="-apple-system,BlinkMacSystemFont,'Segoe UI',Roboto,Helvetica,Arial,sans-serif" font-size="12.5" font-style="italic" fill="#9198a1">Almost all of it private.</text>
  <text x="394" y="213.5" text-anchor="end" font-family="-apple-system,BlinkMacSystemFont,'Segoe UI',Roboto,Helvetica,Arial,sans-serif" font-size="9.5" fill="#9198a1">rolling 365 days</text>
  <rect x="428.5" y="0.5" width="411" height="230.5" rx="10" fill="#151b23" stroke="#3d444d"/>
  <rect x="428.5" y="0.5" width="411" height="230.5" rx="10" fill="url(#wash-purple)"/>
  <text x="446" y="30" font-family="-apple-system,BlinkMacSystemFont,'Segoe UI',Roboto,Helvetica,Arial,sans-serif" font-size="16.5" font-weight="600" fill="#f0f6fc">🤖  What Claude ships</text>
  <text x="446" y="56" font-family="-apple-system,BlinkMacSystemFont,'Segoe UI',Roboto,Helvetica,Arial,sans-serif" font-size="13" fill="#b7bfc7"><tspan font-family="ui-monospace,SFMono-Regular,Menlo,Consolas,monospace" font-size="12.5" font-weight="600" fill="#f0f6fc">2,856</tspan><tspan fill="#b7bfc7"> of </tspan><tspan font-family="ui-monospace,SFMono-Regular,Menlo,Consolas,monospace" font-size="12.5" font-weight="600" fill="#f0f6fc">6,092</tspan><tspan fill="#b7bfc7"> of my commits</tspan></text>
  <text x="446" y="77" font-family="-apple-system,BlinkMacSystemFont,'Segoe UI',Roboto,Helvetica,Arial,sans-serif" font-size="13" fill="#b7bfc7"><tspan font-family="ui-monospace,SFMono-Regular,Menlo,Consolas,monospace" font-size="12.5" font-weight="600" fill="#f0f6fc">47%</tspan><tspan fill="#b7bfc7"> co-authored</tspan></text>
  <text x="446" y="98" font-family="-apple-system,BlinkMacSystemFont,'Segoe UI',Roboto,Helvetica,Arial,sans-serif" font-size="13" fill="#b7bfc7"><tspan font-family="ui-monospace,SFMono-Regular,Menlo,Consolas,monospace" font-size="12.5" font-weight="600" fill="#3fb950">+378,545</tspan><tspan fill="#b7bfc7">  /  </tspan><tspan font-family="ui-monospace,SFMono-Regular,Menlo,Consolas,monospace" font-size="12.5" font-weight="600" fill="#f85149">-166,243</tspan><tspan fill="#b7bfc7"> lines</tspan></text>
  <text x="446" y="123" font-family="-apple-system,BlinkMacSystemFont,'Segoe UI',Roboto,Helvetica,Arial,sans-serif" font-size="12.5" font-style="italic" fill="#9198a1">I review all of it. Allegedly.</text>
  <text x="822" y="213.5" text-anchor="end" font-family="-apple-system,BlinkMacSystemFont,'Segoe UI',Roboto,Helvetica,Arial,sans-serif" font-size="9.5" fill="#9198a1">rolling 365 days</text>
  <rect x="0.5" y="248" width="411" height="230.5" rx="10" fill="#151b23" stroke="#3d444d"/>
  <rect x="0.5" y="248" width="411" height="230.5" rx="10" fill="url(#wash-amber)"/>
  <text x="18" y="277.5" font-family="-apple-system,BlinkMacSystemFont,'Segoe UI',Roboto,Helvetica,Arial,sans-serif" font-size="16.5" font-weight="600" fill="#f0f6fc">🎬  What I watch</text>
  <text x="18" y="303.5" font-family="-apple-system,BlinkMacSystemFont,'Segoe UI',Roboto,Helvetica,Arial,sans-serif" font-size="13" fill="#b7bfc7"><tspan font-family="ui-monospace,SFMono-Regular,Menlo,Consolas,monospace" font-size="12.5" font-weight="600" fill="#f0f6fc">1,103</tspan><tspan fill="#b7bfc7"> films rated</tspan></text>
  <text x="18" y="324.5" font-family="-apple-system,BlinkMacSystemFont,'Segoe UI',Roboto,Helvetica,Arial,sans-serif" font-size="13" fill="#b7bfc7"><tspan font-family="ui-monospace,SFMono-Regular,Menlo,Consolas,monospace" font-size="12.5" font-weight="600" fill="#f0f6fc">677</tspan><tspan fill="#b7bfc7"> on the watchlist</tspan></text>
  <text x="18" y="345.5" font-family="-apple-system,BlinkMacSystemFont,'Segoe UI',Roboto,Helvetica,Arial,sans-serif" font-size="13" fill="#b7bfc7"><tspan font-family="ui-monospace,SFMono-Regular,Menlo,Consolas,monospace" font-size="12.5" font-weight="600" fill="#f0f6fc">7.09</tspan><tspan fill="#b7bfc7"> average - </tspan><tspan font-family="ui-monospace,SFMono-Regular,Menlo,Consolas,monospace" font-size="12.5" font-weight="600" fill="#f0f6fc">0.07</tspan><tspan fill="#b7bfc7"> under IMDb</tspan></text>
  <text x="18" y="366.5" font-family="-apple-system,BlinkMacSystemFont,'Segoe UI',Roboto,Helvetica,Arial,sans-serif" font-size="13" fill="#b7bfc7"><tspan fill="#b7bfc7">only </tspan><tspan font-family="ui-monospace,SFMono-Regular,Menlo,Consolas,monospace" font-size="12.5" font-weight="600" fill="#f0f6fc">2</tspan><tspan fill="#b7bfc7"> scored </tspan><tspan font-family="ui-monospace,SFMono-Regular,Menlo,Consolas,monospace" font-size="12.5" font-weight="600" fill="#f0f6fc">10</tspan><tspan fill="#b7bfc7"> of 250</tspan></text>
  <text x="18" y="391.5" font-family="-apple-system,BlinkMacSystemFont,'Segoe UI',Roboto,Helvetica,Arial,sans-serif" font-size="12.5" font-style="italic" fill="#9198a1">Indistinguishable from everyone else.</text>
  <text x="394" y="461" text-anchor="end" font-family="-apple-system,BlinkMacSystemFont,'Segoe UI',Roboto,Helvetica,Arial,sans-serif" font-size="9.5" fill="#9198a1">as of July 2026</text>
  <rect x="428.5" y="248" width="411" height="230.5" rx="10" fill="#151b23" stroke="#3d444d"/>
  <rect x="428.5" y="248" width="411" height="230.5" rx="10" fill="url(#wash-pink)"/>
  <text x="446" y="277.5" font-family="-apple-system,BlinkMacSystemFont,'Segoe UI',Roboto,Helvetica,Arial,sans-serif" font-size="16.5" font-weight="600" fill="#f0f6fc">💿  What I spin</text>
  <text x="446" y="303.5" font-family="-apple-system,BlinkMacSystemFont,'Segoe UI',Roboto,Helvetica,Arial,sans-serif" font-size="13" fill="#b7bfc7"><tspan font-family="ui-monospace,SFMono-Regular,Menlo,Consolas,monospace" font-size="12.5" font-weight="600" fill="#f0f6fc">86</tspan><tspan fill="#b7bfc7"> records, </tspan><tspan font-family="ui-monospace,SFMono-Regular,Menlo,Consolas,monospace" font-size="12.5" font-weight="600" fill="#f0f6fc">100%</tspan><tspan fill="#b7bfc7"> vinyl</tspan></text>
  <text x="446" y="324.5" font-family="-apple-system,BlinkMacSystemFont,'Segoe UI',Roboto,Helvetica,Arial,sans-serif" font-size="13" fill="#b7bfc7"><tspan fill="#b7bfc7">Rock 54  ·  Pop 22</tspan></text>
  <text x="446" y="345.5" font-family="-apple-system,BlinkMacSystemFont,'Segoe UI',Roboto,Helvetica,Arial,sans-serif" font-size="13" fill="#b7bfc7"><tspan fill="#b7bfc7">Funk / Soul 20</tspan></text>
  <text x="446" y="366.5" font-family="-apple-system,BlinkMacSystemFont,'Segoe UI',Roboto,Helvetica,Arial,sans-serif" font-size="13" fill="#b7bfc7"><tspan fill="#b7bfc7">Dire Straits · Fleetwood Mac and 1 more</tspan></text>
  <text x="446" y="387.5" font-family="-apple-system,BlinkMacSystemFont,'Segoe UI',Roboto,Helvetica,Arial,sans-serif" font-size="13" fill="#b7bfc7"><tspan fill="#b7bfc7">at </tspan><tspan font-family="ui-monospace,SFMono-Regular,Menlo,Consolas,monospace" font-size="12.5" font-weight="600" fill="#f0f6fc">4</tspan><tspan fill="#b7bfc7"> records each</tspan></text>
  <text x="446" y="412.5" font-family="-apple-system,BlinkMacSystemFont,'Segoe UI',Roboto,Helvetica,Arial,sans-serif" font-size="12.5" font-style="italic" fill="#9198a1">Nothing at all from the 1990s.</text>
  <text x="822" y="461" text-anchor="end" font-family="-apple-system,BlinkMacSystemFont,'Segoe UI',Roboto,Helvetica,Arial,sans-serif" font-size="9.5" fill="#9198a1">collection as it stands</text>
  <rect x="0.5" y="495.5" width="839" height="230.5" rx="10" fill="#151b23" stroke="#3d444d"/>
  <rect x="0.5" y="495.5" width="839" height="230.5" rx="10" fill="url(#wash-blue)"/>
  <text x="18" y="525" font-family="-apple-system,BlinkMacSystemFont,'Segoe UI',Roboto,Helvetica,Arial,sans-serif" font-size="16.5" font-weight="600" fill="#f0f6fc">🌦  Paris, mostly rain</text>
  <text x="18" y="551" font-family="-apple-system,BlinkMacSystemFont,'Segoe UI',Roboto,Helvetica,Arial,sans-serif" font-size="13" fill="#b7bfc7"><tspan font-family="ui-monospace,SFMono-Regular,Menlo,Consolas,monospace" font-size="12.5" font-weight="600" fill="#f0f6fc">88</tspan><tspan fill="#b7bfc7"> rainy days this year</tspan></text>
  <text x="18" y="572" font-family="-apple-system,BlinkMacSystemFont,'Segoe UI',Roboto,Helvetica,Arial,sans-serif" font-size="13" fill="#b7bfc7"><tspan font-family="ui-monospace,SFMono-Regular,Menlo,Consolas,monospace" font-size="12.5" font-weight="600" fill="#f0f6fc">514.4</tspan><tspan fill="#b7bfc7"> mm so far</tspan></text>
  <rect x="18.0" y="612.4" width="4.0" height="1.6" fill="#58a6ff" rx="1"/><rect x="24.0" y="612.5" width="4.0" height="1.5" fill="#58a6ff" rx="1"/><rect x="30.1" y="611.7" width="4.0" height="2.3" fill="#58a6ff" rx="1"/><rect x="36.1" y="605.7" width="4.0" height="8.3" fill="#58a6ff" rx="1"/><rect x="42.2" y="610.3" width="4.0" height="3.7" fill="#58a6ff" rx="1"/><rect x="48.2" y="609.9" width="4.0" height="4.1" fill="#58a6ff" rx="1"/><rect x="54.3" y="611.4" width="4.0" height="2.6" fill="#58a6ff" rx="1"/><rect x="60.3" y="612.5" width="4.0" height="1.5" fill="#58a6ff" rx="1"/><rect x="66.4" y="612.5" width="4.0" height="1.5" fill="#58a6ff" rx="1"/><rect x="72.4" y="612.5" width="4.0" height="1.5" fill="#58a6ff" rx="1"/><rect x="78.5" y="607.5" width="4.0" height="6.5" fill="#58a6ff" rx="1"/><rect x="84.5" y="611.6" width="4.0" height="2.4" fill="#58a6ff" rx="1"/><rect x="90.5" y="612.2" width="4.0" height="1.8" fill="#58a6ff" rx="1"/><rect x="96.6" y="605.7" width="4.0" height="8.3" fill="#58a6ff" rx="1"/><rect x="102.6" y="611.7" width="4.0" height="2.3" fill="#58a6ff" rx="1"/><rect x="108.7" y="612.1" width="4.0" height="1.9" fill="#58a6ff" rx="1"/><rect x="114.7" y="607.2" width="4.0" height="6.8" fill="#58a6ff" rx="1"/><rect x="120.8" y="610.6" width="4.0" height="3.4" fill="#58a6ff" rx="1"/><rect x="126.8" y="611.4" width="4.0" height="2.6" fill="#58a6ff" rx="1"/><rect x="132.9" y="612.5" width="4.0" height="1.5" fill="#58a6ff" rx="1"/><rect x="138.9" y="594.6" width="4.0" height="19.4" fill="#58a6ff" rx="1"/><rect x="144.9" y="603.4" width="4.0" height="10.6" fill="#58a6ff" rx="1"/><rect x="151.0" y="607.1" width="4.0" height="6.9" fill="#58a6ff" rx="1"/><rect x="157.0" y="611.4" width="4.0" height="2.6" fill="#58a6ff" rx="1"/><rect x="163.1" y="598.5" width="4.0" height="15.5" fill="#58a6ff" rx="1"/><rect x="169.1" y="612.5" width="4.0" height="1.5" fill="#58a6ff" rx="1"/><rect x="175.2" y="609.9" width="4.0" height="4.1" fill="#58a6ff" rx="1"/><rect x="181.2" y="612.5" width="4.0" height="1.5" fill="#58a6ff" rx="1"/><rect x="187.3" y="611.8" width="4.0" height="2.2" fill="#58a6ff" rx="1"/><rect x="193.3" y="612.5" width="4.0" height="1.5" fill="#58a6ff" rx="1"/><rect x="199.4" y="612.5" width="4.0" height="1.5" fill="#58a6ff" rx="1"/><rect x="205.4" y="612.5" width="4.0" height="1.5" fill="#58a6ff" rx="1"/><rect x="211.4" y="612.5" width="4.0" height="1.5" fill="#58a6ff" rx="1"/><rect x="217.5" y="612.5" width="4.0" height="1.5" fill="#58a6ff" rx="1"/><rect x="223.5" y="603.9" width="4.0" height="10.1" fill="#58a6ff" rx="1"/><rect x="229.6" y="603.6" width="4.0" height="10.4" fill="#58a6ff" rx="1"/><rect x="235.6" y="609.2" width="4.0" height="4.8" fill="#58a6ff" rx="1"/><rect x="241.7" y="612.5" width="4.0" height="1.5" fill="#58a6ff" rx="1"/><rect x="247.7" y="612.5" width="4.0" height="1.5" fill="#58a6ff" rx="1"/><rect x="253.8" y="612.5" width="4.0" height="1.5" fill="#58a6ff" rx="1"/><rect x="259.8" y="612.5" width="4.0" height="1.5" fill="#58a6ff" rx="1"/><rect x="265.8" y="610.8" width="4.0" height="3.2" fill="#58a6ff" rx="1"/><rect x="271.9" y="612.5" width="4.0" height="1.5" fill="#58a6ff" rx="1"/><rect x="277.9" y="607.9" width="4.0" height="6.1" fill="#58a6ff" rx="1"/><rect x="284.0" y="612.5" width="4.0" height="1.5" fill="#58a6ff" rx="1"/><rect x="290.0" y="611.4" width="4.0" height="2.6" fill="#58a6ff" rx="1"/><rect x="296.1" y="612.5" width="4.0" height="1.5" fill="#58a6ff" rx="1"/><rect x="302.1" y="612.5" width="4.0" height="1.5" fill="#58a6ff" rx="1"/><rect x="308.2" y="612.5" width="4.0" height="1.5" fill="#58a6ff" rx="1"/><rect x="314.2" y="612.1" width="4.0" height="1.9" fill="#58a6ff" rx="1"/><rect x="320.3" y="610.5" width="4.0" height="3.5" fill="#58a6ff" rx="1"/><rect x="326.3" y="609.9" width="4.0" height="4.1" fill="#58a6ff" rx="1"/><rect x="332.3" y="612.5" width="4.0" height="1.5" fill="#58a6ff" rx="1"/><rect x="338.4" y="612.5" width="4.0" height="1.5" fill="#58a6ff" rx="1"/><rect x="344.4" y="612.5" width="4.0" height="1.5" fill="#58a6ff" rx="1"/><rect x="350.5" y="612.5" width="4.0" height="1.5" fill="#58a6ff" rx="1"/><rect x="356.5" y="612.5" width="4.0" height="1.5" fill="#58a6ff" rx="1"/><rect x="362.6" y="612.5" width="4.0" height="1.5" fill="#58a6ff" rx="1"/><rect x="368.6" y="612.5" width="4.0" height="1.5" fill="#58a6ff" rx="1"/><rect x="374.7" y="612.5" width="4.0" height="1.5" fill="#58a6ff" rx="1"/><rect x="380.7" y="612.5" width="4.0" height="1.5" fill="#58a6ff" rx="1"/><rect x="386.8" y="604.7" width="4.0" height="9.3" fill="#58a6ff" rx="1"/><rect x="392.8" y="596.5" width="4.0" height="17.5" fill="#58a6ff" rx="1"/><rect x="398.8" y="612.5" width="4.0" height="1.5" fill="#58a6ff" rx="1"/><rect x="404.9" y="597.0" width="4.0" height="17.0" fill="#58a6ff" rx="1"/><rect x="410.9" y="610.1" width="4.0" height="3.9" fill="#58a6ff" rx="1"/><rect x="417.0" y="608.4" width="4.0" height="5.6" fill="#58a6ff" rx="1"/><rect x="423.0" y="611.9" width="4.0" height="2.1" fill="#58a6ff" rx="1"/><rect x="429.1" y="606.1" width="4.0" height="7.9" fill="#58a6ff" rx="1"/><rect x="435.1" y="609.3" width="4.0" height="4.7" fill="#58a6ff" rx="1"/><rect x="441.2" y="612.5" width="4.0" height="1.5" fill="#58a6ff" rx="1"/><rect x="447.2" y="612.5" width="4.0" height="1.5" fill="#58a6ff" rx="1"/><rect x="453.2" y="612.5" width="4.0" height="1.5" fill="#58a6ff" rx="1"/><rect x="459.3" y="612.5" width="4.0" height="1.5" fill="#58a6ff" rx="1"/><rect x="465.3" y="612.5" width="4.0" height="1.5" fill="#58a6ff" rx="1"/><rect x="471.4" y="612.5" width="4.0" height="1.5" fill="#58a6ff" rx="1"/><rect x="477.4" y="603.5" width="4.0" height="10.5" fill="#58a6ff" rx="1"/><rect x="483.5" y="609.7" width="4.0" height="4.3" fill="#58a6ff" rx="1"/><rect x="489.5" y="612.5" width="4.0" height="1.5" fill="#58a6ff" rx="1"/><rect x="495.6" y="611.2" width="4.0" height="2.8" fill="#58a6ff" rx="1"/><rect x="501.6" y="610.6" width="4.0" height="3.4" fill="#58a6ff" rx="1"/><rect x="507.7" y="612.5" width="4.0" height="1.5" fill="#58a6ff" rx="1"/><rect x="513.7" y="612.5" width="4.0" height="1.5" fill="#58a6ff" rx="1"/><rect x="519.7" y="612.5" width="4.0" height="1.5" fill="#58a6ff" rx="1"/><rect x="525.8" y="610.8" width="4.0" height="3.2" fill="#58a6ff" rx="1"/><rect x="531.8" y="612.5" width="4.0" height="1.5" fill="#58a6ff" rx="1"/><rect x="537.9" y="612.5" width="4.0" height="1.5" fill="#58a6ff" rx="1"/><rect x="543.9" y="612.5" width="4.0" height="1.5" fill="#58a6ff" rx="1"/><rect x="550.0" y="612.2" width="4.0" height="1.8" fill="#58a6ff" rx="1"/><rect x="556.0" y="612.3" width="4.0" height="1.7" fill="#58a6ff" rx="1"/><rect x="562.1" y="612.5" width="4.0" height="1.5" fill="#58a6ff" rx="1"/><rect x="568.1" y="612.5" width="4.0" height="1.5" fill="#58a6ff" rx="1"/><rect x="574.2" y="612.5" width="4.0" height="1.5" fill="#58a6ff" rx="1"/><rect x="580.2" y="612.5" width="4.0" height="1.5" fill="#58a6ff" rx="1"/><rect x="586.2" y="612.5" width="4.0" height="1.5" fill="#58a6ff" rx="1"/><rect x="592.3" y="612.5" width="4.0" height="1.5" fill="#58a6ff" rx="1"/><rect x="598.3" y="612.5" width="4.0" height="1.5" fill="#58a6ff" rx="1"/><rect x="604.4" y="612.5" width="4.0" height="1.5" fill="#58a6ff" rx="1"/><rect x="610.4" y="603.5" width="4.0" height="10.5" fill="#58a6ff" rx="1"/><rect x="616.5" y="612.5" width="4.0" height="1.5" fill="#58a6ff" rx="1"/><rect x="622.5" y="612.5" width="4.0" height="1.5" fill="#58a6ff" rx="1"/><rect x="628.6" y="612.5" width="4.0" height="1.5" fill="#58a6ff" rx="1"/><rect x="634.6" y="612.5" width="4.0" height="1.5" fill="#58a6ff" rx="1"/><rect x="640.6" y="612.5" width="4.0" height="1.5" fill="#58a6ff" rx="1"/><rect x="646.7" y="612.5" width="4.0" height="1.5" fill="#58a6ff" rx="1"/><rect x="652.7" y="611.7" width="4.0" height="2.3" fill="#58a6ff" rx="1"/><rect x="658.8" y="612.5" width="4.0" height="1.5" fill="#58a6ff" rx="1"/><rect x="664.8" y="612.5" width="4.0" height="1.5" fill="#58a6ff" rx="1"/><rect x="670.9" y="612.5" width="4.0" height="1.5" fill="#58a6ff" rx="1"/><rect x="676.9" y="612.5" width="4.0" height="1.5" fill="#58a6ff" rx="1"/><rect x="683.0" y="612.5" width="4.0" height="1.5" fill="#58a6ff" rx="1"/><rect x="689.0" y="612.5" width="4.0" height="1.5" fill="#58a6ff" rx="1"/><rect x="695.1" y="612.5" width="4.0" height="1.5" fill="#58a6ff" rx="1"/><rect x="701.1" y="612.5" width="4.0" height="1.5" fill="#58a6ff" rx="1"/><rect x="707.1" y="612.5" width="4.0" height="1.5" fill="#58a6ff" rx="1"/><rect x="713.2" y="609.8" width="4.0" height="4.2" fill="#58a6ff" rx="1"/><rect x="719.2" y="612.5" width="4.0" height="1.5" fill="#58a6ff" rx="1"/><rect x="725.3" y="612.5" width="4.0" height="1.5" fill="#58a6ff" rx="1"/><rect x="731.3" y="611.4" width="4.0" height="2.6" fill="#58a6ff" rx="1"/><rect x="737.4" y="592.0" width="4.0" height="22.0" fill="#58a6ff" rx="1"/><rect x="743.4" y="611.4" width="4.0" height="2.6" fill="#58a6ff" rx="1"/><rect x="749.5" y="612.5" width="4.0" height="1.5" fill="#58a6ff" rx="1"/><rect x="755.5" y="612.5" width="4.0" height="1.5" fill="#58a6ff" rx="1"/><rect x="761.5" y="612.5" width="4.0" height="1.5" fill="#58a6ff" rx="1"/><rect x="767.6" y="612.5" width="4.0" height="1.5" fill="#58a6ff" rx="1"/><rect x="773.6" y="612.5" width="4.0" height="1.5" fill="#58a6ff" rx="1"/><rect x="779.7" y="612.5" width="4.0" height="1.5" fill="#58a6ff" rx="1"/><rect x="785.7" y="612.1" width="4.0" height="1.9" fill="#58a6ff" rx="1"/><rect x="791.8" y="612.5" width="4.0" height="1.5" fill="#58a6ff" rx="1"/><rect x="797.8" y="612.5" width="4.0" height="1.5" fill="#58a6ff" rx="1"/><rect x="803.9" y="612.5" width="4.0" height="1.5" fill="#58a6ff" rx="1"/><rect x="809.9" y="612.5" width="4.0" height="1.5" fill="#58a6ff" rx="1"/><rect x="816.0" y="612.5" width="4.0" height="1.5" fill="#58a6ff" rx="1"/><text x="18.0" y="627.0" font-family="-apple-system,BlinkMacSystemFont,'Segoe UI',Roboto,Helvetica,Arial,sans-serif" font-size="9" fill="#9198a1">jan.</text><text x="108.7" y="627.0" font-family="-apple-system,BlinkMacSystemFont,'Segoe UI',Roboto,Helvetica,Arial,sans-serif" font-size="9" fill="#9198a1">feb.</text><text x="193.3" y="627.0" font-family="-apple-system,BlinkMacSystemFont,'Segoe UI',Roboto,Helvetica,Arial,sans-serif" font-size="9" fill="#9198a1">mar.</text><text x="290.0" y="627.0" font-family="-apple-system,BlinkMacSystemFont,'Segoe UI',Roboto,Helvetica,Arial,sans-serif" font-size="9" fill="#9198a1">apr.</text><text x="380.7" y="627.0" font-family="-apple-system,BlinkMacSystemFont,'Segoe UI',Roboto,Helvetica,Arial,sans-serif" font-size="9" fill="#9198a1">may.</text><text x="471.4" y="627.0" font-family="-apple-system,BlinkMacSystemFont,'Segoe UI',Roboto,Helvetica,Arial,sans-serif" font-size="9" fill="#9198a1">jun.</text><text x="562.1" y="627.0" font-family="-apple-system,BlinkMacSystemFont,'Segoe UI',Roboto,Helvetica,Arial,sans-serif" font-size="9" fill="#9198a1">jul.</text><text x="658.8" y="627.0" font-family="-apple-system,BlinkMacSystemFont,'Segoe UI',Roboto,Helvetica,Arial,sans-serif" font-size="9" fill="#9198a1">aug.</text><text x="749.5" y="627.0" font-family="-apple-system,BlinkMacSystemFont,'Segoe UI',Roboto,Helvetica,Arial,sans-serif" font-size="9" fill="#9198a1">sep.</text>
  <text x="18" y="656" font-family="-apple-system,BlinkMacSystemFont,'Segoe UI',Roboto,Helvetica,Arial,sans-serif" font-size="12.5" font-style="italic" fill="#9198a1">&quot;Rain addict&quot;, says the bio. The data agrees.</text>
  <text x="822" y="708.5" text-anchor="end" font-family="-apple-system,BlinkMacSystemFont,'Segoe UI',Roboto,Helvetica,Arial,sans-serif" font-size="9.5" fill="#9198a1">1 Jan → 22 September 2026 · a rainy day is ≥ 1 mm</text>
</svg>
